<?xml version="1.0" encoding="UTF-8"?>
<svg width="282px" height="104px" viewBox="0 0 282 104" version="1.1" xmlns="http://www.w3.org/2000/svg" xmlns:xlink="http://www.w3.org/1999/xlink">
    <title>Group 6</title>
    <g id="Page-1" stroke="none" stroke-width="1" fill="none" fill-rule="evenodd">
        <g id="elea@3x" transform="translate(-2.000000, -2.000000)" fill="#FFFFFF">
            <g id="Group-6" transform="translate(2.000000, 2.000000)">
                <path d="M269.1005,64.17 C269.1005,69.875 267.9495,74.865 265.6505,79.143 C263.3495,83.421 260.2445,86.688 256.3355,88.941 C252.4245,91.196 248.1245,92.322 243.4325,92.322 C238.7405,92.322 234.4625,91.196 230.5985,88.941 C226.7345,86.688 223.6515,83.421 221.3525,79.143 C219.0515,74.865 217.9025,69.828 217.9025,64.032 C217.9025,58.329 219.0515,53.361 221.3525,49.128 C223.6515,44.897 226.7345,41.676 230.5985,39.468 C234.4625,37.26 238.7405,36.156 243.4325,36.156 C248.1245,36.156 252.4245,37.284 256.3355,39.537 C260.2445,41.792 263.3495,45.035 265.6505,49.266 C267.9495,53.499 269.1005,58.467 269.1005,64.17 M205.0685,64.032 C205.0685,71.669 206.6315,78.477 209.7605,84.456 C212.8875,90.437 217.1655,95.082 222.5945,98.394 C228.0215,101.706 234.0935,103.362 240.8105,103.362 C247.3415,103.362 253.0685,101.913 257.9915,99.015 C262.9125,96.117 266.6165,92.46 269.1005,88.044 L269.1005,102.12 L281.7965,102.12 L281.7965,26.496 L269.1005,26.496 L269.1005,40.296 C266.7075,35.973 263.0735,32.385 258.1985,29.532 C253.3215,26.681 247.5725,25.254 240.9485,25.254 C234.2315,25.254 228.1365,26.865 222.6635,30.084 C217.1885,33.305 212.8875,37.836 209.7605,43.677 C206.6315,49.52 205.0685,56.304 205.0685,64.032 M180.226,58.788 L132.478,58.788 C133.121,51.612 135.674,46.001 140.137,41.952 C144.598,37.905 150.004,35.88 156.352,35.88 C160.768,35.88 164.792,36.777 168.427,38.571 C172.06,40.365 174.935,42.987 177.052,46.437 C179.167,49.887 180.226,54.005 180.226,58.788 L180.226,58.788 Z M193.198,61.41 C193.198,54.51 191.702,48.324 188.713,42.849 C185.722,37.376 181.468,33.075 175.948,29.946 C170.428,26.819 164.08,25.254 156.904,25.254 C149.543,25.254 143.035,26.841 137.377,30.015 C131.719,33.189 127.325,37.721 124.198,43.608 C121.069,49.497 119.506,56.351 119.506,64.17 C119.506,71.991 121.115,78.867 124.336,84.801 C127.555,90.735 131.995,95.313 137.653,98.532 C143.311,101.753 149.728,103.362 156.904,103.362 C165.919,103.362 173.464,101.085 179.536,96.531 C185.608,91.977 189.655,86.067 191.68,78.798 L178.156,78.798 C176.683,83.031 174.13,86.412 170.497,88.941 C166.862,91.472 162.331,92.736 156.904,92.736 C150.28,92.736 144.644,90.644 139.999,86.457 C135.352,82.272 132.799,76.452 132.34,69 L192.784,69 C193.06,66.333 193.198,63.803 193.198,61.41 L193.198,61.41 Z M90.252,102.12 L102.81,102.12 L102.81,0 L90.252,0 L90.252,102.12 Z M60.72,58.788 L12.972,58.788 C13.615,51.612 16.168,46.001 20.631,41.952 C25.093,37.905 30.498,35.88 36.846,35.88 C41.262,35.88 45.286,36.777 48.921,38.571 C52.555,40.365 55.429,42.987 57.546,46.437 C59.662,49.887 60.72,54.005 60.72,58.788 L60.72,58.788 Z M73.692,61.41 C73.692,54.51 72.196,48.324 69.207,42.849 C66.217,37.376 61.962,33.075 56.442,29.946 C50.922,26.819 44.574,25.254 37.398,25.254 C30.037,25.254 23.529,26.841 17.871,30.015 C12.213,33.189 7.819,37.721 4.692,43.608 C1.564,49.497 0,56.351 0,64.17 C0,71.991 1.609,78.867 4.83,84.801 C8.05,90.735 12.489,95.313 18.147,98.532 C23.805,101.753 30.222,103.362 37.398,103.362 C46.414,103.362 53.958,101.085 60.03,96.531 C66.102,91.977 70.15,86.067 72.174,78.798 L58.65,78.798 C57.178,83.031 54.625,86.412 50.991,88.941 C47.356,91.472 42.826,92.736 37.398,92.736 C30.774,92.736 25.138,90.644 20.493,86.457 C15.847,82.272 13.294,76.452 12.834,69 L73.278,69 C73.554,66.333 73.692,63.803 73.692,61.41 L73.692,61.41 Z" id="Combined-Shape"></path>
            </g>
        </g>
    </g>
</svg>